<?xml version="1.0" encoding="UTF-8"?>
<svg id="Layer_1" data-name="Layer 1" xmlns="http://www.w3.org/2000/svg" viewBox="0 0 207.8 291.38">
  <defs>
    <style>
      .cls-1 {
        fill: #f5d77f;
      }

      .cls-1, .cls-2, .cls-3, .cls-4 {
        stroke-width: 0px;
      }

      .cls-2 {
        fill: #daa813;
      }

      .cls-5 {
        fill: #fff;
        stroke: #000;
        stroke-width: 2.05px;
      }

      .cls-3 {
        fill: #004a79;
      }

      .cls-4 {
        fill: #0ab9d8;
      }
    </style>
  </defs>
  <g id="layer2">
    <rect id="rect32" class="cls-5" x="3.45" y="9.43" width="202.53" height="34.5"/>
  </g>
  <g id="g18">
    <g id="g22">
      <path id="path30" class="cls-1" d="m103.9,272.68c-.27,0-20.23-11.3-44.36-25.11l-43.87-25.11-.06-73.81-.06-73.81h176.69l-.06,73.81-.06,73.81-43.87,25.11c-24.12,13.81-44.08,25.1-44.35,25.1Zm-6.93-22.42c.32-.05.37-4.39.43-37l.07-36.94,19.42-11.05c10.68-6.08,19.54-11.09,19.68-11.14.18-.06.25,12.27.25,40.29,0,35.4.04,40.39.36,40.51.21.08,3.36-1.53,7.35-3.75l6.99-3.89.06-40.92.06-40.92,9.17-5.23,9.17-5.23.06-9.52.06-9.52-.91.38c-.5.21-4.6,2.5-9.12,5.09-4.51,2.59-8.26,4.71-8.32,4.71s-.12-4.54-.12-10.09v-10.09h25.52v-14.83h-40.34v43.64l-5.77,3.3-5.77,3.3-.06-25.12-.06-25.12h-61.49l.64,1.01c.35.56,2.93,3.89,5.73,7.41l5.09,6.4h7.5v59.75l-18.53,10.57-18.53,10.57-.06-47.86-.06-47.86h-14.82v122.73h.67c.43,0,9.49-4.99,25.94-14.3l25.28-14.3.12,28.55.12,28.55,6.93,3.98c3.81,2.19,7.09,3.95,7.29,3.91Zm1.76-93.74l-1.28.73v-51.53h13.12v22.06s-.01,22.06-.01,22.06l-5.28,2.98c-2.9,1.64-5.86,3.31-6.56,3.71h0Z"/>
      <path id="path28" class="cls-4" d="m103.9,51.28H0V0h207.8v51.28h-103.9Zm-29.24-12.65c.23,0,.7-.12,1.05-.28.35-.16.79-.59.98-.96.26-.5.35-1.65.35-4.45v-3.78h8.26v4.13c0,3.79.04,4.17.48,4.61.26.26.76.55,1.1.63.34.09.95.02,1.35-.15.41-.17.9-.62,1.1-1.01.31-.6.35-2.03.29-9.26l-.07-8.56-.69-1.49c-.38-.83-1.19-1.98-1.82-2.6-.63-.61-1.79-1.42-2.59-1.79-1.21-.56-1.79-.67-3.4-.67-1.62,0-2.2.12-3.46.69-.93.42-1.93,1.13-2.59,1.84-.59.63-1.29,1.57-1.55,2.09-.26.52-.6,1.53-.75,2.23-.17.81-.27,4.22-.26,9.11,0,6.03.08,7.96.33,8.41.18.32.58.73.9.9.32.18.77.33,1,.33Zm6.51-14.09h-4.13v-2.44c0-1.5.13-2.74.33-3.22.18-.43.72-1.13,1.21-1.56.48-.43,1.27-.85,1.74-.93.47-.09,1.24-.09,1.71,0,.47.09,1.25.51,1.74.93.48.43,1.03,1.13,1.21,1.56.2.48.33,1.73.33,3.22v2.44h-4.13Zm17.57,14.09c.24,0,.74-.15,1.11-.34.37-.19.8-.63.96-.98.18-.41.29-2,.29-4.39v-3.76h4.24c2.77,0,4.46-.1,4.88-.29.35-.16.79-.59.98-.96.19-.37.35-.83.35-1.04s-.13-.65-.29-1c-.16-.35-.59-.79-.96-.98-.5-.26-1.72-.35-4.93-.35h-4.27v-2.13c0-1.68.1-2.29.48-2.9.26-.43.8-.95,1.2-1.15.58-.3,1.61-.38,4.88-.38s4.32-.09,4.83-.35c.37-.19.8-.63.96-.98.16-.35.29-.85.29-1.1s-.13-.75-.29-1.1c-.16-.35-.59-.79-.96-.98-.5-.26-1.69-.35-4.7-.35-3.44,0-4.27.08-5.62.51-.87.28-2.04.86-2.6,1.29-.56.43-1.32,1.23-1.7,1.79-.38.56-.84,1.75-1.03,2.66-.26,1.24-.35,3.59-.34,9.55,0,6.1.08,8.03.33,8.48.18.32.58.73.9.9.32.18.78.33,1.02.33Zm21.36,0c.23,0,.7-.12,1.05-.28.35-.16.79-.59.98-.96.26-.5.35-1.65.35-4.45v-3.78h8.26v4.13c0,3.79.04,4.17.48,4.61.26.26.76.55,1.1.63.34.09.95.02,1.35-.15.4-.17.9-.62,1.1-1.01.31-.6.35-2.03.29-9.26l-.07-8.56-.69-1.49c-.38-.83-1.19-1.98-1.82-2.6-.62-.61-1.79-1.42-2.59-1.79-1.21-.56-1.79-.67-3.4-.67-1.62,0-2.2.12-3.46.69-.93.42-1.93,1.13-2.59,1.84-.59.63-1.29,1.57-1.55,2.09-.26.52-.6,1.53-.75,2.23-.17.81-.27,4.22-.26,9.11,0,6.03.08,7.96.33,8.41.18.32.58.73.9.9.32.18.77.33,1,.33h0Zm6.51-14.09h-4.13v-2.44c0-1.5.13-2.74.33-3.22.18-.43.72-1.13,1.21-1.56.49-.43,1.27-.85,1.74-.93.47-.09,1.24-.09,1.71,0,.47.09,1.25.51,1.74.93.49.43,1.03,1.13,1.21,1.56.2.48.33,1.73.33,3.22v2.44h-4.13Zm-91.02,8.51h30.26v-14.1H5.35v14.1h30.26Zm136.59,0h30.26v-14.1h-60.52v14.1h30.26Z"/>
      <path id="path26" class="cls-2" d="m104.14,291.38c-.27-.01-23.78-13.44-52.25-29.85L.12,231.71l-.06-86.2-.06-86.2h207.31l-.06,86.57-.06,86.57-51.28,29.48c-28.2,16.21-51.5,29.47-51.77,29.45h0Zm-.24-18.69c.27,0,20.23-11.29,44.35-25.1l43.87-25.11.06-73.81.06-73.81H15.55l.06,73.81.06,73.81,43.87,25.11c24.13,13.81,44.09,25.11,44.36,25.11h0Z"/>
      <path id="path24" class="cls-3" d="m96.97,250.26c-.2.03-3.48-1.73-7.29-3.91l-6.93-3.98-.12-28.55-.12-28.55-25.28,14.3c-16.45,9.31-25.51,14.3-25.94,14.3h-.67v-122.73h14.82l.06,47.86.06,47.86,18.53-10.57,18.53-10.57v-59.75h-7.5l-5.09-6.4c-2.8-3.52-5.38-6.86-5.73-7.41l-.64-1.01h61.49l.06,25.12.06,25.12,5.77-3.3,5.77-3.3v-43.64h40.34v14.83h-25.52v10.09c0,5.55.06,10.09.12,10.09s3.81-2.12,8.32-4.71c4.51-2.59,8.61-4.88,9.12-5.09l.91-.38-.06,9.52-.06,9.52-9.17,5.23-9.17,5.23-.06,40.92-.06,40.92-6.99,3.89c-4,2.22-7.15,3.83-7.35,3.75-.31-.12-.36-5.11-.36-40.51,0-28.02-.08-40.35-.25-40.29-.14.05-9,5.06-19.68,11.14l-19.42,11.05-.07,36.94c-.06,32.61-.11,36.94-.43,37h0Zm1.76-93.74c.7-.4,3.65-2.07,6.56-3.71l5.28-2.98v-22.06s.01-22.06.01-22.06h-13.12v51.53l1.28-.73h0Z"/>
    </g>
  </g>
</svg>